<?xml version="1.0" encoding="UTF-8" standalone="no"?>
<svg
   xmlns:dc="http://purl.org/dc/elements/1.1/"
   xmlns:cc="http://creativecommons.org/ns#"
   xmlns:rdf="http://www.w3.org/1999/02/22-rdf-syntax-ns#"
   xmlns:svg="http://www.w3.org/2000/svg"
   xmlns="http://www.w3.org/2000/svg"
   version="1.1"
   id="svg2"
   viewBox="0 0 325 325"
   height="325"
   width="325">
  <defs
     id="defs4" />
  <metadata
     id="metadata7">
    <rdf:RDF>
      <cc:Work
         rdf:about="">
        <dc:format>image/svg+xml</dc:format>
        <dc:type
           rdf:resource="http://purl.org/dc/dcmitype/StillImage" />
        <dc:title></dc:title>
      </cc:Work>
    </rdf:RDF>
  </metadata>
  <g
     transform="translate(-68.996757,-161.49366)"
     id="layer1">
    <rect
       ry="6.3205299"
       y="448.62167"
       x="222.70221"
       height="23.558357"
       width="22.983763"
       id="rect4191"
       style="fill:#ff0000;fill-opacity:1;stroke:none;stroke-width:8;stroke-linecap:round;stroke-linejoin:round;stroke-miterlimit:4;stroke-dasharray:none;stroke-dashoffset:0;stroke-opacity:1" />
    <rect
       style="fill:#ff0000;fill-opacity:1;stroke:none;stroke-width:8;stroke-linecap:round;stroke-linejoin:round;stroke-miterlimit:4;stroke-dasharray:none;stroke-dashoffset:0;stroke-opacity:1"
       id="rect4193"
       width="22.983763"
       height="23.558357"
       x="264.70224"
       y="448.62167"
       ry="6.3205299" />
    <rect
       ry="14.384269"
       y="350.91022"
       x="206.58754"
       height="99.730927"
       width="97.14286"
       id="rect4140"
       style="fill:#c5c5c5;fill-opacity:1;stroke:none;stroke-width:2;stroke-linecap:round;stroke-linejoin:round;stroke-miterlimit:4;stroke-dasharray:none;stroke-dashoffset:0;stroke-opacity:1" />
    <g
       transform="matrix(0.9771466,-0.21256649,0.21256649,0.9771466,-19.859225,79.105064)"
       id="g4169">
      <rect
         style="fill:#ff0000;fill-opacity:1;stroke:none;stroke-width:3;stroke-linecap:round;stroke-linejoin:round;stroke-miterlimit:4;stroke-dasharray:none;stroke-dashoffset:0;stroke-opacity:1"
         id="rect4177"
         width="12.641069"
         height="22.696466"
         x="289.59543"
         y="264.59375"
         ry="6.3205347" />
      <rect
         style="fill:#ff0000;fill-opacity:1;stroke:none;stroke-width:3;stroke-linecap:round;stroke-linejoin:round;stroke-miterlimit:4;stroke-dasharray:none;stroke-dashoffset:0;stroke-opacity:1"
         id="rect4173"
         width="12.641069"
         height="22.696466"
         x="117.5"
         y="263.44455"
         ry="6.3205347" />
      <rect
         style="fill:#c5c5c5;fill-opacity:1;stroke:none;stroke-width:2;stroke-linecap:round;stroke-linejoin:round;stroke-miterlimit:4;stroke-dasharray:none;stroke-dashoffset:0;stroke-opacity:1"
         id="rect4138"
         width="160"
         height="111.42857"
         x="130"
         y="222.36221"
         ry="31.428572" />
      <ellipse
         style="fill:#000000;fill-opacity:1;stroke:none;stroke-width:2;stroke-linecap:round;stroke-linejoin:round;stroke-miterlimit:4;stroke-dasharray:none;stroke-dashoffset:0;stroke-opacity:1"
         id="path4144"
         cx="172.5"
         cy="268.50507"
         rx="7.5"
         ry="7.1428571" />
      <ellipse
         ry="7.1428571"
         rx="7.5"
         cy="268.50507"
         cx="244.5"
         id="ellipse4146"
         style="fill:#000000;fill-opacity:1;stroke:none;stroke-width:2;stroke-linecap:round;stroke-linejoin:round;stroke-miterlimit:4;stroke-dasharray:none;stroke-dashoffset:0;stroke-opacity:1" />
      <path
         style="fill:#000000;fill-opacity:1;fill-rule:evenodd;stroke:none;stroke-width:3;stroke-linecap:round;stroke-linejoin:round;stroke-miterlimit:4;stroke-dasharray:none;stroke-opacity:1"
         d="m 225.57524,280.70576 c -1.42065,14.7127 -32.43016,15.2873 -34.28572,0"
         id="path4167" />
      <ellipse
         style="fill:#ff0000;fill-opacity:1;stroke:none;stroke-width:3;stroke-linecap:round;stroke-linejoin:round;stroke-miterlimit:4;stroke-dasharray:none;stroke-dashoffset:0;stroke-opacity:1"
         id="path4169"
         cx="158.15701"
         cy="286.28464"
         rx="5.8895893"
         ry="3.016619" />
      <ellipse
         ry="3.016619"
         rx="5.8895893"
         cy="286.28464"
         cx="252.15701"
         id="ellipse4171"
         style="fill:#ff0000;fill-opacity:1;stroke:none;stroke-width:3;stroke-linecap:round;stroke-linejoin:round;stroke-miterlimit:4;stroke-dasharray:none;stroke-dashoffset:0;stroke-opacity:1" />
    </g>
    <g
       transform="translate(46.301846,27.43996)"
       id="g4164">
      <rect
         style="fill:#c5c5c5;fill-opacity:1;stroke:none;stroke-width:3;stroke-linecap:round;stroke-linejoin:round;stroke-miterlimit:4;stroke-dasharray:none;stroke-dashoffset:0;stroke-opacity:1"
         id="rect4179"
         width="17.237822"
         height="25.282139"
         x="144.79771"
         y="350.20825"
         ry="7.4697084" />
      <rect
         ry="7.4697084"
         y="350.20825"
         x="128.7977"
         height="25.282139"
         width="17.237822"
         id="rect4181"
         style="fill:#c5c5c5;fill-opacity:1;stroke:none;stroke-width:3;stroke-linecap:round;stroke-linejoin:round;stroke-miterlimit:4;stroke-dasharray:none;stroke-dashoffset:0;stroke-opacity:1" />
      <path
         id="path4187"
         d="m 108.48672,347.78896 c 26.23064,1.38112 27.25507,28.08026 0,29.88419"
         style="fill:none;fill-rule:evenodd;stroke:#c5c5c5;stroke-width:8;stroke-linecap:round;stroke-linejoin:round;stroke-miterlimit:4;stroke-dasharray:none;stroke-opacity:1" />
    </g>
    <g
       transform="matrix(0.87749921,-0.47957807,0.47957807,0.87749921,-99.873167,177.47619)"
       id="g4159">
      <rect
         ry="7.4697084"
         y="350.20825"
         x="270.79773"
         height="25.282139"
         width="17.237822"
         id="rect4183"
         style="fill:#c5c5c5;fill-opacity:1;stroke:none;stroke-width:3;stroke-linecap:round;stroke-linejoin:round;stroke-miterlimit:4;stroke-dasharray:none;stroke-dashoffset:0;stroke-opacity:1" />
      <rect
         style="fill:#c5c5c5;fill-opacity:1;stroke:none;stroke-width:3;stroke-linecap:round;stroke-linejoin:round;stroke-miterlimit:4;stroke-dasharray:none;stroke-dashoffset:0;stroke-opacity:1"
         id="rect4185"
         width="17.237822"
         height="25.282139"
         x="254.7977"
         y="350.20825"
         ry="7.4697084" />
      <path
         style="fill:none;fill-rule:evenodd;stroke:#c5c5c5;stroke-width:8;stroke-linecap:round;stroke-linejoin:round;stroke-miterlimit:4;stroke-dasharray:none;stroke-opacity:1"
         d="m 308.48872,347.78896 c -26.23064,1.38112 -27.25507,28.08026 0,29.88419"
         id="path4189" />
    </g>
    <g
       transform="matrix(0.89252256,0,0,0.89252256,68.70958,55.397145)"
       id="text4152"
       style="font-style:normal;font-weight:normal;font-size:40px;line-height:125%;font-family:sans-serif;letter-spacing:0px;word-spacing:0px;fill:#ff9dab;fill-opacity:1;stroke:#ff0000;stroke-width:4.15563726;stroke-linecap:round;stroke-linejoin:round;stroke-miterlimit:4;stroke-dasharray:none;stroke-opacity:1">
      <path
         id="path4157"
         d="m 211.29102,347.12891 c -5.42178,0 -10.39109,1.83489 -14.59961,5.375 -1.8469,1.55848 0.005,4.48209 2.20312,3.47851 2.53962,-1.16399 4.74157,-1.6914 6.58594,-1.6914 l 1.26367,0 c 2.31,0 4.91053,0.67317 7.81641,2.13671 0.0517,0.0263 0.10448,0.0504 0.1582,0.0723 5.15979,2.07625 7.27734,5.10174 7.27734,10.20508 l 0,1.23047 c 0,1.67469 -0.39461,3.05555 -0.96875,4.33398 -0.3461,-0.23756 -0.27056,-0.1739 -0.69336,-0.48242 -1.05119,-0.76709 -2.75627,-2.0584 -4.41406,-3.31055 l 2.98047,-3.76172 c 0.29104,-0.36736 0.44935,-0.82233 0.44922,-1.29101 0,-8.9e-4 -0.17344,-0.83113 -0.17383,-0.83203 -3.9e-4,-9.1e-4 -0.2207,-0.40019 -0.33008,-0.52735 -0.21876,-0.25432 -0.39052,-0.35967 -0.51758,-0.43554 -0.25411,-0.15176 -0.37312,-0.1783 -0.4707,-0.20899 -0.19515,-0.0614 -0.2856,-0.073 -0.38281,-0.0898 -0.19441,-0.0337 -0.37009,-0.053 -0.5957,-0.0762 -0.45123,-0.0462 -1.0685,-0.0955 -1.88672,-0.15039 -1.63646,-0.10987 -4.06064,-0.2445 -7.29102,-0.4043 -0.62299,-0.0305 -1.22673,0.22047 -1.64453,0.68359 l -7.96289,8.81836 c -0.6661,0.73746 -0.71685,1.8433 -0.12109,2.63867 0.30268,0.40358 0.39744,0.42343 0.53711,0.53516 0.13966,0.11173 0.28497,0.21764 0.45703,0.33984 0.3441,0.24442 0.79036,0.5451 1.36132,0.91797 1.14194,0.74575 2.77233,1.77542 4.91016,3.10157 0.32898,0.20422 0.70848,0.31245 1.0957,0.3125 l 0.20508,0 c 0.57418,3e-5 1.12278,-0.23751 1.51563,-0.65626 l 2.28906,-2.4375 3.66016,3.33985 c -2.46066,1.19687 -5.06408,1.99023 -8.04493,1.99023 -3.22765,0 -5.81058,-0.83109 -8.01367,-2.48828 -0.36027,-0.27127 -0.79902,-0.41798 -1.25,-0.41797 -0.75724,0 -1.05222,0.24498 -1.28125,0.39258 -0.22903,0.1476 -0.37621,0.28012 -0.52148,0.41602 -0.2858,0.26735 -0.54508,0.55966 -0.84375,0.91992 -0.004,0.004 -0.004,0.006 -0.008,0.01 -0.002,0.002 -0.004,0.003 -0.006,0.006 -3.92059,4.63647 -6.93815,8.18992 -9.04297,10.64649 -1.05398,1.23011 -1.88098,2.18544 -2.47461,2.86328 -0.59364,0.67784 -1.04409,1.1577 -1.00196,1.11719 -0.68639,0.66023 -0.8361,1.70256 -0.36328,2.52929 0.29117,0.50955 0.3524,0.46509 0.42969,0.53711 0.0773,0.072 0.13537,0.11924 0.19727,0.16993 0.12379,0.10137 0.25884,0.20487 0.42578,0.33007 0.33388,0.25042 0.79069,0.58094 1.39062,1.00782 1.19986,0.85374 2.95889,2.08219 5.28711,3.6914 0.34723,0.24024 0.7594,0.369 1.18164,0.36914 l 0.10352,0 c 0.75079,-4.8e-4 1.44293,-0.40591 1.81055,-1.06054 l 8.01953,-14.28125 c 3.04571,1.48226 6.28374,2.42187 9.7539,2.42187 4.69564,0 8.97281,-1.14111 12.75391,-3.29492 l 5.2207,4.79687 c 0.38338,0.35275 0.88528,0.54863 1.40625,0.54883 l 0.10157,0 c 0.52728,6e-5 1.03487,-0.20032 1.41992,-0.56055 l 4.78515,-4.47851 c 0.93731,-0.87848 0.86098,-2.38849 -0.16015,-3.16797 l -5.00196,-3.81641 c 2.2512,-3.19621 3.46289,-6.97209 3.46289,-11.17773 0,-5.38231 -1.96105,-10.2149 -5.71289,-14.0918 -0.0321,-0.033 -0.0653,-0.0649 -0.0996,-0.0957 -4.93557,-4.46327 -10.42967,-6.84575 -16.23046,-6.95508 -0.13374,-0.027 -0.26982,-0.0407 -0.40625,-0.041 z"
         style="color:#000000;font-style:normal;font-variant:normal;font-weight:normal;font-stretch:normal;font-size:70px;line-height:125%;font-family:'Droid Sans';-inkscape-font-specification:'Droid Sans';text-indent:0;text-align:start;text-decoration:none;text-decoration-line:none;text-decoration-style:solid;text-decoration-color:#000000;letter-spacing:0px;word-spacing:0px;text-transform:none;direction:ltr;block-progression:tb;writing-mode:lr-tb;baseline-shift:baseline;text-anchor:start;white-space:normal;clip-rule:nonzero;display:inline;overflow:visible;visibility:visible;opacity:1;isolation:auto;mix-blend-mode:normal;color-interpolation:sRGB;color-interpolation-filters:linearRGB;solid-color:#000000;solid-opacity:1;fill:#ff0000;fill-opacity:1;fill-rule:nonzero;stroke:none;stroke-width:4.15563726;stroke-linecap:round;stroke-linejoin:round;stroke-miterlimit:4;stroke-dasharray:none;stroke-dashoffset:0;stroke-opacity:1;color-rendering:auto;image-rendering:auto;shape-rendering:auto;text-rendering:auto;enable-background:accumulate" />
    </g>
    <g
       id="g4232"
       style="font-style:normal;font-weight:normal;font-size:40px;line-height:125%;font-family:sans-serif;letter-spacing:0px;word-spacing:0px;fill:#ff9dab;fill-opacity:1;stroke:#ff0000;stroke-width:4.15563726;stroke-linecap:round;stroke-linejoin:round;stroke-miterlimit:4;stroke-dasharray:none;stroke-opacity:1"
       transform="matrix(0.89252256,0,0,0.89252256,44.203598,28.265524)">
      <path
         style="fill:#ffffff;fill-opacity:1;stroke:#000000;stroke-width:4.64301968;stroke-linecap:round;stroke-linejoin:round;stroke-miterlimit:4;stroke-dasharray:none;stroke-opacity:1"
         d="m 98.183804,166.64963 c -31.420188,-4.9e-4 -56.891626,19.97668 -56.891675,44.61997 4.2e-5,24.64329 25.471482,44.62047 56.891675,44.61998 15.291086,0.22461 30.903126,-7.16676 30.903126,-7.16676 l 26.14624,3.73348 -10.48019,-15.59496 c 0,0 9.39986,-3.23107 10.3198,-25.59174 -5e-5,-24.64246 -25.46985,-44.6193 -56.888976,-44.61997 z"
         id="path4181" />
      <g
         id="text4187"
         style="font-style:normal;font-weight:normal;font-size:26.1771431px;line-height:125%;font-family:sans-serif;letter-spacing:0px;word-spacing:0px;fill:#000000;fill-opacity:1;stroke:none;stroke-width:1px;stroke-linecap:butt;stroke-linejoin:miter;stroke-opacity:1"
         transform="matrix(0.99960351,0.02815697,-0.02815697,0.99960351,0,0)">
        <path
           id="path4262"
           style="font-style:normal;font-variant:normal;font-weight:normal;font-stretch:normal;font-size:39.21469498px;font-family:'Droid Sans Mono';-inkscape-font-specification:'Droid Sans Mono'"
           d="m 82.673482,214.35274 q 2.910466,0 2.910466,3.17853 0,3.17854 -2.910466,3.17854 -2.891318,0 -2.891318,-3.17854 0,-3.17853 2.891318,-3.17853 z" />
        <path
           id="path4264"
           style="font-style:normal;font-variant:normal;font-weight:normal;font-stretch:normal;font-size:39.21469498px;font-family:'Droid Sans Mono';-inkscape-font-specification:'Droid Sans Mono'"
           d="m 106.18698,214.35274 q 2.91047,0 2.91047,3.17853 0,3.17854 -2.91047,3.17854 -2.89132,0 -2.89132,-3.17854 0,-3.17853 2.89132,-3.17853 z" />
        <path
           id="path4266"
           style="font-style:normal;font-variant:normal;font-weight:normal;font-stretch:normal;font-size:39.21469498px;font-family:'Droid Sans Mono';-inkscape-font-specification:'Droid Sans Mono'"
           d="m 129.70048,214.35274 q 2.91046,0 2.91046,3.17853 0,3.17854 -2.91046,3.17854 -2.89132,0 -2.89132,-3.17854 0,-3.17853 2.89132,-3.17853 z" />
      </g>
    </g>
  </g>
</svg>
